<svg id="Layer_1" data-name="Layer 1" xmlns="http://www.w3.org/2000/svg" xmlns:xlink="http://www.w3.org/1999/xlink" viewBox="0 0 141.42 148.42"><defs><style>.cls-1{fill:none;}.cls-2{fill:#f58a4c;}.cls-3{fill:#ffa870;}.cls-4{fill:#a12d37;}.cls-5{fill:#fff;}.cls-6{fill:#c93945;}.cls-7{fill:#7a2f45;}.cls-8{fill:#f57355;}.cls-9{fill:#241c29;}.cls-10{clip-path:url(#clip-path);}.cls-11{fill:#d6865f;}</style><clipPath id="clip-path" transform="translate(-338.42 -305.64)"><path class="cls-1" d="M348.26,389a60.6,60.6,0,0,0,60.53,57.8h0a60.57,60.57,0,0,0,60.5-57.8h-121Z"/></clipPath></defs><title>richrd</title><path class="cls-2" d="M351.95,362.25h37.32v27H351.95a13.52,13.52,0,0,1-13.52-13.52v0A13.51,13.51,0,0,1,351.95,362.25Z" transform="translate(-338.42 -305.64)"/><path class="cls-2" d="M466.32,362.25H428.73v27h37.59a13.52,13.52,0,0,0,13.52-13.52v0A13.51,13.51,0,0,0,466.32,362.25Z" transform="translate(-338.42 -305.64)"/><path class="cls-3" d="M408.77,446.8h0a60.57,60.57,0,0,1-59.57-71.53l4.35-23.67a56.12,56.12,0,0,1,55.19-46h0a56.12,56.12,0,0,1,55.2,46l4.36,23.7A60.54,60.54,0,0,1,408.77,446.8Z" transform="translate(-338.42 -305.64)"/><path d="M389.68,354.5H378.41a4.15,4.15,0,0,1-4.15-4.15h0a4.15,4.15,0,0,1,4.15-4.15h11.27a4.15,4.15,0,0,1,4.15,4.15h0A4.15,4.15,0,0,1,389.68,354.5Z" transform="translate(-338.42 -305.64)"/><path d="M440.08,354.5H428.81a4.15,4.15,0,0,1-4.15-4.15h0a4.15,4.15,0,0,1,4.15-4.15h11.27a4.15,4.15,0,0,1,4.15,4.15h0A4.15,4.15,0,0,1,440.08,354.5Z" transform="translate(-338.42 -305.64)"/><path class="cls-4" d="M431.62,395.62a23.21,23.21,0,0,1-1.27,7.64,22.54,22.54,0,0,1-11,12.71,23.37,23.37,0,0,1-21.48-.08A22.52,22.52,0,0,1,387,403.27a23.21,23.21,0,0,1-1.27-7.64h45.87Z" transform="translate(-338.42 -305.64)"/><path class="cls-5" d="M431.62,395.62a23.21,23.21,0,0,1-1.27,7.64H387a23.21,23.21,0,0,1-1.27-7.64h45.87Z" transform="translate(-338.42 -305.64)"/><path class="cls-6" d="M419.35,416a23.37,23.37,0,0,1-21.48-.08A11.51,11.51,0,0,1,419.35,416Z" transform="translate(-338.42 -305.64)"/><path class="cls-7" d="M391.64,371.23H375.25A8.2,8.2,0,0,1,391.64,371.23Z" transform="translate(-338.42 -305.64)"/><path class="cls-7" d="M441.88,371.23H425.48A8.2,8.2,0,1,1,441.88,371.23Z" transform="translate(-338.42 -305.64)"/><path class="cls-8" d="M408.75,385.53h0a8.83,8.83,0,0,1-8.83-8.83v-9.24h17.67v9.24A8.83,8.83,0,0,1,408.75,385.53Z" transform="translate(-338.42 -305.64)"/><path class="cls-9" d="M368.41,355.33a14.62,14.62,0,0,0,0,4.08H357a13.15,13.15,0,0,0-5.53,1.2l-0.11-.4c-0.12-.43-0.22-0.87-0.33-1.3s-0.2-.88-0.3-1.3-0.15-.68-0.21-1a17.3,17.3,0,0,1,6.47-1.25h11.45Z" transform="translate(-338.42 -305.64)"/><path class="cls-9" d="M467,356.5c-0.06.34-.14,0.67-0.21,1s-0.17.81-.28,1.21-0.24,1-.38,1.5l-0.08.3a13.08,13.08,0,0,0-5.29-1.1H449.07a14.62,14.62,0,0,0,0-4.08h11.71A17.14,17.14,0,0,1,467,356.5Z" transform="translate(-338.42 -305.64)"/><path class="cls-9" d="M418.1,363.56a14.63,14.63,0,0,0,0,4.08h-19a14.63,14.63,0,0,0,0-4.08h19Z" transform="translate(-338.42 -305.64)"/><path class="cls-9" d="M398.25,360.33v16.94H369.5V360.33h28.75m5-5H364.5v26.94h38.75V355.33h0Z" transform="translate(-338.42 -305.64)"/><path class="cls-9" d="M447.75,360.33v16.94H419V360.33h28.75m5-5H414v26.94h38.75V355.33h0Z" transform="translate(-338.42 -305.64)"/><g class="cls-10"><circle class="cls-11" cx="13.45" cy="85.86" r="1.14"/><circle class="cls-11" cx="13.45" cy="89.86" r="1.14"/><circle class="cls-11" cx="13.45" cy="93.86" r="1.14"/><circle class="cls-11" cx="13.45" cy="97.77" r="1.14"/><circle class="cls-11" cx="13.45" cy="101.77" r="1.14"/><circle class="cls-11" cx="13.45" cy="105.77" r="1.14"/><circle class="cls-11" cx="17.45" cy="87.86" r="1.14"/><circle class="cls-11" cx="17.45" cy="91.86" r="1.14"/><circle class="cls-11" cx="17.45" cy="95.86" r="1.14"/><circle class="cls-11" cx="17.45" cy="99.77" r="1.14"/><circle class="cls-11" cx="17.45" cy="103.77" r="1.14"/><circle class="cls-11" cx="17.45" cy="107.77" r="1.14"/><circle class="cls-11" cx="21.45" cy="93.86" r="1.14"/><circle class="cls-11" cx="21.45" cy="97.86" r="1.14"/><circle class="cls-11" cx="21.45" cy="101.86" r="1.14"/><circle class="cls-11" cx="21.45" cy="105.77" r="1.14"/><circle class="cls-11" cx="21.45" cy="109.77" r="1.14"/><circle class="cls-11" cx="21.45" cy="113.77" r="1.14"/><circle class="cls-11" cx="25.45" cy="100.86" r="1.14"/><circle class="cls-11" cx="25.45" cy="104.86" r="1.14"/><circle class="cls-11" cx="25.45" cy="108.86" r="1.14"/><circle class="cls-11" cx="25.45" cy="112.77" r="1.14"/><circle class="cls-11" cx="25.45" cy="116.77" r="1.14"/><circle class="cls-11" cx="25.45" cy="120.77" r="1.14"/><circle class="cls-11" cx="29.83" cy="107.36" r="1.14"/><circle class="cls-11" cx="29.83" cy="111.36" r="1.14"/><circle class="cls-11" cx="29.83" cy="115.36" r="1.14"/><circle class="cls-11" cx="29.83" cy="119.27" r="1.14"/><circle class="cls-11" cx="29.83" cy="123.27" r="1.14"/><circle class="cls-11" cx="29.83" cy="127.27" r="1.14"/><circle class="cls-11" cx="33.83" cy="109.36" r="1.14"/><circle class="cls-11" cx="33.83" cy="113.36" r="1.14"/><circle class="cls-11" cx="33.83" cy="117.36" r="1.14"/><circle class="cls-11" cx="33.83" cy="121.27" r="1.14"/><circle class="cls-11" cx="33.83" cy="125.27" r="1.14"/><circle class="cls-11" cx="33.83" cy="129.27" r="1.14"/><circle class="cls-11" cx="37.83" cy="115.36" r="1.14"/><circle class="cls-11" cx="37.83" cy="119.36" r="1.14"/><circle class="cls-11" cx="37.83" cy="123.36" r="1.14"/><circle class="cls-11" cx="37.83" cy="127.27" r="1.14"/><circle class="cls-11" cx="37.83" cy="131.27" r="1.14"/><circle class="cls-11" cx="37.83" cy="135.27" r="1.14"/><circle class="cls-11" cx="41.83" cy="120.36" r="1.14"/><circle class="cls-11" cx="41.83" cy="124.36" r="1.14"/><circle class="cls-11" cx="41.83" cy="128.36" r="1.14"/><circle class="cls-11" cx="41.83" cy="132.27" r="1.14"/><circle class="cls-11" cx="41.83" cy="136.27" r="1.14"/><circle class="cls-11" cx="41.83" cy="140.27" r="1.14"/><circle class="cls-11" cx="45.74" cy="122.36" r="1.14"/><circle class="cls-11" cx="45.74" cy="126.36" r="1.14"/><circle class="cls-11" cx="45.74" cy="130.36" r="1.14"/><circle class="cls-11" cx="45.74" cy="134.27" r="1.14"/><circle class="cls-11" cx="45.74" cy="138.27" r="1.14"/><circle class="cls-11" cx="45.74" cy="142.27" r="1.14"/><circle class="cls-11" cx="49.58" cy="124.36" r="1.14"/><circle class="cls-11" cx="49.58" cy="128.36" r="1.14"/><circle class="cls-11" cx="49.58" cy="132.36" r="1.14"/><circle class="cls-11" cx="49.58" cy="136.27" r="1.14"/><circle class="cls-11" cx="49.58" cy="140.27" r="1.14"/><circle class="cls-11" cx="49.58" cy="144.27" r="1.14"/><circle class="cls-11" cx="129.18" cy="85.86" r="1.14"/><circle class="cls-11" cx="129.18" cy="89.86" r="1.14"/><circle class="cls-11" cx="129.18" cy="93.86" r="1.14"/><circle class="cls-11" cx="129.18" cy="97.77" r="1.14"/><circle class="cls-11" cx="129.18" cy="101.77" r="1.14"/><circle class="cls-11" cx="129.18" cy="105.77" r="1.14"/><circle class="cls-11" cx="125.18" cy="87.86" r="1.14"/><circle class="cls-11" cx="125.18" cy="91.86" r="1.14"/><circle class="cls-11" cx="125.18" cy="95.86" r="1.14"/><circle class="cls-11" cx="125.18" cy="99.77" r="1.14"/><circle class="cls-11" cx="125.18" cy="103.77" r="1.14"/><circle class="cls-11" cx="125.18" cy="107.77" r="1.14"/><circle class="cls-11" cx="121.18" cy="93.86" r="1.14"/><circle class="cls-11" cx="121.18" cy="97.86" r="1.14"/><circle class="cls-11" cx="121.18" cy="101.86" r="1.14"/><circle class="cls-11" cx="121.18" cy="105.77" r="1.14"/><circle class="cls-11" cx="121.18" cy="109.77" r="1.14"/><circle class="cls-11" cx="121.18" cy="113.77" r="1.14"/><circle class="cls-11" cx="117.18" cy="100.86" r="1.14"/><circle class="cls-11" cx="117.18" cy="104.86" r="1.14"/><circle class="cls-11" cx="117.18" cy="108.86" r="1.14"/><circle class="cls-11" cx="117.18" cy="112.77" r="1.14"/><circle class="cls-11" cx="117.18" cy="116.77" r="1.14"/><circle class="cls-11" cx="117.18" cy="120.77" r="1.14"/><circle class="cls-11" cx="112.81" cy="107.36" r="1.14"/><circle class="cls-11" cx="112.81" cy="111.36" r="1.14"/><circle class="cls-11" cx="112.81" cy="115.36" r="1.14"/><circle class="cls-11" cx="112.81" cy="119.27" r="1.14"/><circle class="cls-11" cx="112.81" cy="123.27" r="1.14"/><circle class="cls-11" cx="112.81" cy="127.27" r="1.14"/><circle class="cls-11" cx="108.81" cy="109.36" r="1.14"/><circle class="cls-11" cx="108.81" cy="113.36" r="1.14"/><circle class="cls-11" cx="108.81" cy="117.36" r="1.14"/><circle class="cls-11" cx="108.81" cy="121.27" r="1.14"/><circle class="cls-11" cx="108.81" cy="125.27" r="1.14"/><circle class="cls-11" cx="108.81" cy="129.27" r="1.14"/><circle class="cls-11" cx="104.81" cy="115.36" r="1.14"/><circle class="cls-11" cx="104.81" cy="119.36" r="1.14"/><circle class="cls-11" cx="104.81" cy="123.36" r="1.14"/><circle class="cls-11" cx="104.81" cy="127.27" r="1.14"/><circle class="cls-11" cx="104.81" cy="131.27" r="1.14"/><circle class="cls-11" cx="104.81" cy="135.27" r="1.14"/><circle class="cls-11" cx="100.81" cy="120.36" r="1.14"/><circle class="cls-11" cx="100.81" cy="124.36" r="1.14"/><circle class="cls-11" cx="100.81" cy="128.36" r="1.14"/><circle class="cls-11" cx="100.81" cy="132.27" r="1.14"/><circle class="cls-11" cx="100.81" cy="136.27" r="1.14"/><circle class="cls-11" cx="100.81" cy="140.27" r="1.14"/><circle class="cls-11" cx="96.89" cy="122.36" r="1.14"/><circle class="cls-11" cx="96.89" cy="126.36" r="1.14"/><circle class="cls-11" cx="96.89" cy="130.36" r="1.14"/><circle class="cls-11" cx="96.89" cy="134.27" r="1.14"/><circle class="cls-11" cx="96.89" cy="138.27" r="1.14"/><circle class="cls-11" cx="96.89" cy="142.27" r="1.14"/><circle class="cls-11" cx="93.06" cy="124.36" r="1.14"/><circle class="cls-11" cx="93.06" cy="128.36" r="1.14"/><circle class="cls-11" cx="93.06" cy="132.36" r="1.14"/><circle class="cls-11" cx="93.06" cy="136.27" r="1.14"/><circle class="cls-11" cx="93.06" cy="140.27" r="1.14"/><circle class="cls-11" cx="93.06" cy="144.27" r="1.14"/><circle class="cls-11" cx="53.58" cy="126.36" r="1.14"/><circle class="cls-11" cx="53.58" cy="130.36" r="1.14"/><circle class="cls-11" cx="53.58" cy="134.36" r="1.14"/><circle class="cls-11" cx="53.58" cy="138.27" r="1.14"/><circle class="cls-11" cx="53.58" cy="142.27" r="1.14"/><circle class="cls-11" cx="53.58" cy="146.27" r="1.14"/><circle class="cls-11" cx="57.47" cy="127.36" r="1.14"/><circle class="cls-11" cx="57.47" cy="131.36" r="1.14"/><circle class="cls-11" cx="57.47" cy="135.36" r="1.14"/><circle class="cls-11" cx="57.47" cy="139.27" r="1.14"/><circle class="cls-11" cx="57.47" cy="143.27" r="1.14"/><circle class="cls-11" cx="57.47" cy="147.27" r="1.14"/><circle class="cls-11" cx="61.22" cy="127.36" r="1.14"/><circle class="cls-11" cx="61.22" cy="131.36" r="1.14"/><circle class="cls-11" cx="61.22" cy="135.36" r="1.14"/><circle class="cls-11" cx="61.22" cy="139.27" r="1.14"/><circle class="cls-11" cx="61.22" cy="143.27" r="1.14"/><circle class="cls-11" cx="61.22" cy="147.27" r="1.14"/><circle class="cls-11" cx="65.45" cy="127.36" r="1.14"/><circle class="cls-11" cx="65.45" cy="131.36" r="1.14"/><circle class="cls-11" cx="65.45" cy="135.36" r="1.14"/><circle class="cls-11" cx="65.45" cy="139.27" r="1.14"/><circle class="cls-11" cx="65.45" cy="143.27" r="1.14"/><circle class="cls-11" cx="65.45" cy="147.27" r="1.14"/><circle class="cls-11" cx="69.34" cy="127.36" r="1.14"/><circle class="cls-11" cx="69.34" cy="131.36" r="1.14"/><circle class="cls-11" cx="69.34" cy="135.36" r="1.14"/><circle class="cls-11" cx="69.34" cy="139.27" r="1.14"/><circle class="cls-11" cx="69.34" cy="143.27" r="1.14"/><circle class="cls-11" cx="69.34" cy="147.27" r="1.14"/><circle class="cls-11" cx="73.09" cy="127.36" r="1.14"/><circle class="cls-11" cx="73.09" cy="131.36" r="1.14"/><circle class="cls-11" cx="73.09" cy="135.36" r="1.14"/><circle class="cls-11" cx="73.09" cy="139.27" r="1.14"/><circle class="cls-11" cx="73.09" cy="143.27" r="1.14"/><circle class="cls-11" cx="73.09" cy="147.27" r="1.14"/><circle class="cls-11" cx="77.43" cy="127.36" r="1.14"/><circle class="cls-11" cx="77.43" cy="131.36" r="1.14"/><circle class="cls-11" cx="77.43" cy="135.36" r="1.14"/><circle class="cls-11" cx="77.43" cy="139.27" r="1.14"/><circle class="cls-11" cx="77.43" cy="143.27" r="1.14"/><circle class="cls-11" cx="77.43" cy="147.27" r="1.14"/><circle class="cls-11" cx="81.33" cy="127.36" r="1.14"/><circle class="cls-11" cx="81.33" cy="131.36" r="1.14"/><circle class="cls-11" cx="81.33" cy="135.36" r="1.14"/><circle class="cls-11" cx="81.33" cy="139.27" r="1.14"/><circle class="cls-11" cx="81.33" cy="143.27" r="1.14"/><circle class="cls-11" cx="81.33" cy="147.27" r="1.14"/><circle class="cls-11" cx="85.08" cy="127.36" r="1.14"/><circle class="cls-11" cx="85.08" cy="131.36" r="1.14"/><circle class="cls-11" cx="85.08" cy="135.36" r="1.14"/><circle class="cls-11" cx="85.08" cy="139.27" r="1.14"/><circle class="cls-11" cx="85.08" cy="143.27" r="1.14"/><circle class="cls-11" cx="85.08" cy="147.27" r="1.14"/><circle class="cls-11" cx="88.91" cy="127.36" r="1.14"/><circle class="cls-11" cx="88.91" cy="131.36" r="1.14"/><circle class="cls-11" cx="88.91" cy="135.36" r="1.14"/><circle class="cls-11" cx="88.91" cy="139.27" r="1.14"/><circle class="cls-11" cx="88.91" cy="143.27" r="1.14"/><circle class="cls-11" cx="88.91" cy="147.27" r="1.14"/></g></svg>