<svg id="Layer_1" data-name="Layer 1" xmlns="http://www.w3.org/2000/svg" viewBox="0 0 141.42 141.16"><defs><style>.cls-1{fill:#f58a4c;}.cls-2{fill:#ffa870;}.cls-3{fill:#d6865f;}.cls-4{fill:#a12d37;}.cls-5{fill:#fff;}.cls-6{fill:#c93945;}.cls-7{fill:#7a2f45;}.cls-8{fill:#f57355;}.cls-9{fill:#241c29;}</style></defs><title>richrd</title><path class="cls-1" d="M123.95,362.25h37.32v27H123.95a13.52,13.52,0,0,1-13.52-13.52v0A13.51,13.51,0,0,1,123.95,362.25Z" transform="translate(-110.42 -305.64)"/><path class="cls-1" d="M238.32,362.25H200.73v27h37.59a13.52,13.52,0,0,0,13.52-13.52v0A13.51,13.51,0,0,0,238.32,362.25Z" transform="translate(-110.42 -305.64)"/><path class="cls-2" d="M180.77,446.8h0a60.57,60.57,0,0,1-59.57-71.53l4.35-23.67a56.12,56.12,0,0,1,55.19-46h0a56.12,56.12,0,0,1,55.2,46l4.36,23.7A60.54,60.54,0,0,1,180.77,446.8Z" transform="translate(-110.42 -305.64)"/><path d="M161.68,354.5H150.41a4.15,4.15,0,0,1-4.15-4.15h0a4.15,4.15,0,0,1,4.15-4.15h11.27a4.15,4.15,0,0,1,4.15,4.15h0A4.15,4.15,0,0,1,161.68,354.5Z" transform="translate(-110.42 -305.64)"/><path d="M212.08,354.5H200.81a4.15,4.15,0,0,1-4.15-4.15h0a4.15,4.15,0,0,1,4.15-4.15h11.27a4.15,4.15,0,0,1,4.15,4.15h0A4.15,4.15,0,0,1,212.08,354.5Z" transform="translate(-110.42 -305.64)"/><path class="cls-3" d="M120.24,389a60.6,60.6,0,0,0,60.53,57.8h0a60.57,60.57,0,0,0,60.5-57.8h-121Z" transform="translate(-110.42 -305.64)"/><path class="cls-4" d="M203.62,395.62a23.21,23.21,0,0,1-1.27,7.64,22.54,22.54,0,0,1-11,12.71,23.37,23.37,0,0,1-21.48-.08A22.52,22.52,0,0,1,159,403.27a23.21,23.21,0,0,1-1.27-7.64h45.87Z" transform="translate(-110.42 -305.64)"/><path class="cls-5" d="M203.62,395.62a23.21,23.21,0,0,1-1.27,7.64H159a23.21,23.21,0,0,1-1.27-7.64h45.87Z" transform="translate(-110.42 -305.64)"/><path class="cls-6" d="M191.35,416a23.37,23.37,0,0,1-21.48-.08A11.51,11.51,0,0,1,191.35,416Z" transform="translate(-110.42 -305.64)"/><path class="cls-7" d="M163.64,371.23H147.25A8.2,8.2,0,0,1,163.64,371.23Z" transform="translate(-110.42 -305.64)"/><path class="cls-7" d="M213.88,371.23H197.48A8.2,8.2,0,1,1,213.88,371.23Z" transform="translate(-110.42 -305.64)"/><path class="cls-8" d="M180.75,385.53h0a8.83,8.83,0,0,1-8.83-8.83v-9.24h17.67v9.24A8.83,8.83,0,0,1,180.75,385.53Z" transform="translate(-110.42 -305.64)"/><path class="cls-9" d="M140.41,355.33a14.62,14.62,0,0,0,0,4.08H129a13.15,13.15,0,0,0-5.53,1.2l-0.11-.4c-0.12-.43-0.22-0.87-0.33-1.3s-0.2-.88-0.3-1.3-0.15-.68-0.21-1a17.3,17.3,0,0,1,6.47-1.25h11.45Z" transform="translate(-110.42 -305.64)"/><path class="cls-9" d="M239,356.5c-0.06.34-.14,0.67-0.21,1s-0.17.81-.28,1.21-0.24,1-.38,1.5l-0.08.3a13.08,13.08,0,0,0-5.29-1.1H221.07a14.62,14.62,0,0,0,0-4.08h11.71A17.14,17.14,0,0,1,239,356.5Z" transform="translate(-110.42 -305.64)"/><path class="cls-9" d="M190.1,363.56a14.63,14.63,0,0,0,0,4.08h-19a14.63,14.63,0,0,0,0-4.08h19Z" transform="translate(-110.42 -305.64)"/><path class="cls-9" d="M170.25,360.33v16.94H141.5V360.33h28.75m5-5H136.5v26.94h38.75V355.33h0Z" transform="translate(-110.42 -305.64)"/><path class="cls-9" d="M219.75,360.33v16.94H191V360.33h28.75m5-5H186v26.94h38.75V355.33h0Z" transform="translate(-110.42 -305.64)"/></svg>